<svg width="1817" height="2800" viewBox="0 0 1817 2800" fill="none" xmlns="http://www.w3.org/2000/svg">
<g clip-path="url(#clip0_1090_497)">
<path d="M1565.6 1519.02L1145.88 1003.76C1115.05 965.943 1085.02 927.443 1053.7 890.015C963.103 782.197 808.49 764.308 701.836 848.89C676.061 869.076 654.608 894.114 638.715 922.547C622.823 950.985 612.808 982.253 609.253 1014.54C605.699 1046.83 608.673 1079.49 618.006 1110.63C627.344 1141.78 642.85 1170.78 663.626 1195.96C806.092 1373.68 950.167 1550.1 1095.85 1725.22C1121.55 1756.14 1125.4 1784.04 1113.09 1818.55C1091.91 1878.34 1054 1922.09 992.844 1944.94C921.347 1971.97 892.887 1964.86 845.122 1906.05C704.89 1735.33 564.063 1564.61 425.208 1392.05C159.315 1063.35 330.373 585.812 745.759 502.014C950.495 460.792 1132.39 517.663 1270.85 673.216C1399.46 817.876 1517.05 972.164 1639.36 1122.17C1649.8 1134.91 1659.05 1146.96 1654.62 1165.53C1625.47 1280.25 1596.91 1394.68 1565.6 1519.02Z" fill="#D4AF37"/>
<path d="M210.339 1281.75C316.303 1411.44 413.994 1530.82 511.388 1650.4C581.312 1736.24 650.344 1822.67 720.755 1908.13C810.666 2017.11 964.49 2036.17 1072.23 1952.75C1182.03 1867.78 1200.25 1713.79 1110.83 1602.09C980.546 1439.63 847.795 1279.03 716.129 1117.64C670.433 1061.74 668.466 1000.4 710.713 940.8C752.96 881.204 839.622 850.194 901.365 871.968C920.178 878.579 930.322 892.579 941.45 906.286C1079.32 1075.06 1219.85 1242.08 1354.47 1413.58C1494.31 1591.68 1519.42 1789.42 1423.41 1993.39C1327.39 2197.36 1153.67 2303.42 926.382 2309.26C757.587 2313.63 610.459 2250.92 500.459 2122.01C376.966 1977.15 258.79 1827.53 138.252 1679.96C128.404 1667.51 116.094 1655.94 120.92 1636.99C149.872 1522.75 178.53 1408.42 210.339 1281.75Z" fill="#D4AF37"/>
<path d="M88.4099 1768.03L373.999 2117.53C450.027 2210.77 524.772 2305.17 602.273 2397.13C721.433 2538.69 917.997 2525.95 1015.88 2370.69C1020.58 2362.5 1027.01 2355.4 1034.75 2349.9C1042.48 2344.39 1051.33 2340.61 1060.69 2338.8C1156.76 2316.15 1245.75 2270.62 1319.89 2206.19C1328.66 2198.61 1335.94 2181.11 1351.01 2190.06C1363.32 2197.44 1358.5 2213.78 1358.99 2226.22C1368.83 2458.29 1224.96 2677.61 1008.11 2760.93C780.127 2848.42 525.561 2786.3 370.947 2601.58C250.901 2458.19 134.597 2311.78 16.4216 2167.02C4.50563 2152.43 -3.27424 2137.85 1.35429 2118.41C29.3223 2006.22 57.1921 1893.73 88.4099 1768.03Z" fill="#D4AF37"/>
<path d="M1687.9 1031.78C1644.18 978.701 1607.35 934.561 1571.01 889.941C1439.44 728.556 1308.66 566.685 1176.41 405.886C1065.22 270.655 885.495 271.141 775.301 405.886C767.594 418.192 755.336 427.05 741.128 430.58C627.889 452.117 522.512 503.059 435.841 578.156C432.789 580.781 427.471 580.882 418.214 583.603C412.009 432.524 455.735 301.181 554.212 189.476C607.654 128.852 673.868 80.4886 748.223 47.7719C822.578 15.0551 903.275 -1.2247 984.672 0.0717819C1066.07 1.36826 1146.19 20.2097 1219.44 55.2777C1292.69 90.3455 1357.29 140.792 1408.72 203.087C1524.92 343.374 1638.77 485.608 1753.39 626.863C1765.61 641.935 1780.47 655.253 1774.77 678.003C1746.99 791.945 1719.02 905.979 1687.9 1031.78Z" fill="#D4AF37"/>
</g>
<defs>
<clipPath id="clip0_1090_497">
<rect width="1817" height="2800" fill="white"/>
</clipPath>
</defs>
</svg>
